<svg xmlns="http://www.w3.org/2000/svg" width="20" height="20" viewBox="0 0 20 22" fill="none">
    <path d="M13.8333 1.9656H10.35C10 0.996558 9.08333 0.294838 8 0.294838C6.91667 0.294838 6 0.996558 5.65 1.9656H2.16667C1.25 1.9656 0.5 2.71744 0.5 3.63636V15.3317C0.5 16.2506 1.25 17.0025 2.16667 17.0025H13.8333C14.75 17.0025 15.5 16.2506 15.5 15.3317V3.63636C15.5 2.71744 14.75 1.9656 13.8333 1.9656ZM8 1.9656C8.45833 1.9656 8.83333 2.34152 8.83333 2.80098C8.83333 3.26044 8.45833 3.63636 8 3.63636C7.54167 3.63636 7.16667 3.26044 7.16667 2.80098C7.16667 2.34152 7.54167 1.9656 8 1.9656ZM8 5.30712C9.38333 5.30712 10.5 6.42653 10.5 7.81327C10.5 9.2 9.38333 10.3194 8 10.3194C6.61667 10.3194 5.5 9.2 5.5 7.81327C5.5 6.42653 6.61667 5.30712 8 5.30712ZM13 15.3317H3V14.1622C3 12.4914 6.33333 11.5725 8 11.5725C9.66667 11.5725 13 12.4914 13 14.1622V15.3317Z" fill="black"/>
</svg>